# xmcd
#
# Track frame offsets:
#   150
#   12530
#   26157
#   39131
#   53808
#   67070
#   77247
#   87634
#   101803
#   118088
#   136478
#   152938
#   163758
#   174387
#   185936
#   205200
#   216075
#   235730
#   248969
#   265191
#   279138
#   291425
#   309739
#   322031
#
# Disc length: 4435 seconds
#
# Revision: 0
# Processed by: cddbd v1.4PL0 Copyright (c) Steve Scherf et al.
# Submitted via: uFREEDB 1.6.0
#
DISCID=71115118
DTITLE=Margarita y Venezuela - Sus grandes canciones
DYEAR=1998
DGENRE=Blues
TTITLE0=Ansiedad
TTITLE1=Caballo viejo
TTITLE2=Castro en margarita
TTITLE3=Chinita de Maracaibo
TTITLE4=Cuando no se de ti
TTITLE5=El carite
TTITLE6=El tingulillo
TTITLE7=En este pais
TTITLE8=Endrina
TTITLE9=Galeron Margariteño
TTITLE10=Isla de Margarita
TTITLE11=La burriquita, el robalo
TTITLE12=La cachimba
TTITLE13=La galera
TTITLE14=Lejania
TTITLE15=Luna de margarita
TTITLE16=Mi querencia
TTITLE17=Moliendo cafe
TTITLE18=Motivos
TTITLE19=Ondas marinas
TTITLE20=Polo margariteño
TTITLE21=Por el camino
TTITLE22=Sierra nevada
TTITLE23=Tarde gris
EXTD=
EXTT0=
EXTT1=
EXTT2=
EXTT3=
EXTT4=
EXTT5=
EXTT6=
EXTT7=
EXTT8=
EXTT9=
EXTT10=
EXTT11=
EXTT12=
EXTT13=
EXTT14=
EXTT15=
EXTT16=
EXTT17=
EXTT18=
EXTT19=
EXTT20=
EXTT21=
EXTT22=
EXTT23=
PLAYORDER=
